<svg width="189" height="189" viewBox="0 0 189 189" fill="none" xmlns="http://www.w3.org/2000/svg">
<circle cx="5" cy="5" r="5" fill="#303030"/>
<circle cx="5" cy="106.941" r="5" fill="#303030"/>
<circle cx="5" cy="55.9702" r="5" fill="#303030"/>
<circle cx="5" cy="157.911" r="5" fill="#303030"/>
<circle cx="106.94" cy="55.9702" r="5" fill="#303030"/>
<circle cx="106.94" cy="157.911" r="5" fill="#303030"/>
<circle cx="106.94" cy="5" r="5" fill="#303030"/>
<circle cx="106.94" cy="106.941" r="5" fill="#303030"/>
<circle cx="55.9707" cy="5" r="5" fill="#303030"/>
<circle cx="55.9707" cy="106.941" r="5" fill="#303030"/>
<circle cx="55.9707" cy="55.9702" r="5" fill="#303030"/>
<circle cx="55.9707" cy="157.911" r="5" fill="#303030"/>
<circle cx="157.911" cy="55.9702" r="5" fill="#303030"/>
<circle cx="157.911" cy="157.911" r="5" fill="#303030"/>
<circle cx="157.911" cy="5" r="5" fill="#303030"/>
<circle cx="157.911" cy="106.94" r="5" fill="#303030"/>
<circle cx="30.4854" cy="5" r="5" fill="#303030"/>
<circle cx="30.4854" cy="106.941" r="5" fill="#303030"/>
<circle cx="30.4854" cy="55.9702" r="5" fill="#303030"/>
<circle cx="30.4854" cy="157.911" r="5" fill="#303030"/>
<circle cx="132.426" cy="55.9702" r="5" fill="#303030"/>
<circle cx="132.426" cy="157.911" r="5" fill="#303030"/>
<circle cx="132.426" cy="5" r="5" fill="#303030"/>
<circle cx="132.426" cy="106.941" r="5" fill="#303030"/>
<circle cx="81.4551" cy="5" r="5" fill="#303030"/>
<circle cx="81.4551" cy="106.941" r="5" fill="#303030"/>
<circle cx="81.4551" cy="55.9702" r="5" fill="#303030"/>
<circle cx="81.4551" cy="157.911" r="5" fill="#303030"/>
<circle cx="183.396" cy="55.9702" r="5" fill="#303030"/>
<circle cx="183.396" cy="157.911" r="5" fill="#303030"/>
<circle cx="183.396" cy="5" r="5" fill="#303030"/>
<circle cx="183.396" cy="106.94" r="5" fill="#303030"/>
<circle cx="5" cy="30.4851" r="5" fill="#303030"/>
<circle cx="5" cy="132.426" r="5" fill="#303030"/>
<circle cx="5" cy="81.4556" r="5" fill="#303030"/>
<circle cx="5" cy="183.396" r="5" fill="#303030"/>
<circle cx="106.94" cy="81.4556" r="5" fill="#303030"/>
<circle cx="106.94" cy="183.396" r="5" fill="#303030"/>
<circle cx="106.94" cy="30.4851" r="5" fill="#303030"/>
<circle cx="106.94" cy="132.426" r="5" fill="#303030"/>
<circle cx="55.9707" cy="30.4851" r="5" fill="#303030"/>
<circle cx="55.9707" cy="132.426" r="5" fill="#303030"/>
<circle cx="55.9707" cy="81.4556" r="5" fill="#303030"/>
<circle cx="55.9707" cy="183.396" r="5" fill="#303030"/>
<circle cx="157.911" cy="81.4556" r="5" fill="#303030"/>
<circle cx="157.911" cy="183.396" r="5" fill="#303030"/>
<circle cx="157.911" cy="30.4851" r="5" fill="#303030"/>
<circle cx="157.911" cy="132.426" r="5" fill="#303030"/>
<circle cx="30.4854" cy="30.4851" r="5" fill="#303030"/>
<circle cx="30.4854" cy="132.426" r="5" fill="#303030"/>
<circle cx="30.4854" cy="81.4556" r="5" fill="#303030"/>
<circle cx="30.4854" cy="183.396" r="5" fill="#303030"/>
<circle cx="132.426" cy="81.4556" r="5" fill="#303030"/>
<circle cx="132.426" cy="183.396" r="5" fill="#303030"/>
<circle cx="132.426" cy="30.4851" r="5" fill="#303030"/>
<circle cx="132.426" cy="132.426" r="5" fill="#303030"/>
<circle cx="81.4551" cy="30.4851" r="5" fill="#303030"/>
<circle cx="81.4551" cy="132.426" r="5" fill="#303030"/>
<circle cx="81.4551" cy="81.4556" r="5" fill="#303030"/>
<circle cx="81.4551" cy="183.396" r="5" fill="#303030"/>
<circle cx="183.396" cy="81.4556" r="5" fill="#303030"/>
<circle cx="183.396" cy="183.396" r="5" fill="#303030"/>
<circle cx="183.396" cy="30.4851" r="5" fill="#303030"/>
<circle cx="183.396" cy="132.426" r="5" fill="#303030"/>
</svg>
